<svg id="Layer_1" data-name="Layer 1" xmlns="http://www.w3.org/2000/svg" viewBox="0 0 59.22 122.88"><defs><style>.cls-1{fill-rule:evenodd;}</style></defs><title>successful-businessman</title><path class="cls-1" d="M29.73,41.38a9.06,9.06,0,0,1,9.06,9.06c0,5-3.33,9.07-8.34,9.07s-9.78-4.06-9.78-9.07a9.06,9.06,0,0,1,9.06-9.06ZM2.88,113.54H18V75.25a4.81,4.81,0,0,1-1.39-1.51l-12.95-22a4.86,4.86,0,1,1,8.38-4.92L21.9,63.54a82,82,0,0,1,15.43,0l10-17a4.86,4.86,0,1,1,8.39,4.92L42.6,73.74a4.8,4.8,0,0,1-1.17,1.35v38.45H56.58v9.34H2.88v-9.34Zm25.34,0h3V94.44a6.47,6.47,0,0,1-3,0v19.1Zm3.14-105a1.63,1.63,0,0,1-3.26,0V1.63a1.63,1.63,0,0,1,3.26,0V8.52Zm9.65,4a1.62,1.62,0,1,1-2.82-1.59L40.7,6.45A1.62,1.62,0,0,1,43.52,8L41,12.48ZM21.27,10.89a1.62,1.62,0,1,1-2.82,1.59L15.94,8a1.62,1.62,0,0,1,2.82-1.59l2.51,4.44ZM7.63,24.94,9.49,29.3l4.73.43a.37.37,0,0,1,.34.41.38.38,0,0,1-.13.25h0l-3.57,3.12,1.06,4.62a.39.39,0,0,1-.29.46.41.41,0,0,1-.29-.05L7.28,36.11,3.21,38.54a.38.38,0,0,1-.52-.13.38.38,0,0,1,0-.28h0L3.7,33.51.13,30.39a.39.39,0,0,1,0-.54.4.4,0,0,1,.27-.12l4.71-.43,1.86-4.36a.39.39,0,0,1,.5-.2.36.36,0,0,1,.2.2Zm44.66,0,1.86,4.36,4.73.43a.37.37,0,0,1,.34.41.38.38,0,0,1-.13.25h0l-3.57,3.12,1.06,4.62a.39.39,0,0,1-.29.46.41.41,0,0,1-.29-.05l-4.06-2.43-4.07,2.43a.38.38,0,0,1-.52-.13.38.38,0,0,1,0-.28h0l1-4.62-3.57-3.12a.39.39,0,0,1,0-.54.4.4,0,0,1,.27-.12l4.71-.43,1.86-4.36a.38.38,0,0,1,.7,0ZM30.36,13l3.33,7.81,8.46.75a.7.7,0,0,1,.62.74.68.68,0,0,1-.23.45h0l-6.4,5.59L38,36.62a.66.66,0,0,1-.51.81.64.64,0,0,1-.52-.09L29.73,33l-7.29,4.36a.67.67,0,0,1-.93-.23.69.69,0,0,1-.08-.5h0l1.89-8.28-6.4-5.59a.68.68,0,0,1-.06-1,.7.7,0,0,1,.47-.23l8.44-.75L29.11,13a.68.68,0,0,1,.89-.36.72.72,0,0,1,.36.37ZM27.52,67.76l.63-3h3l.75,3a3.51,3.51,0,0,1-4.42,0ZM26.11,83.43l2-13.12a5,5,0,0,0,3,0l2.16,13.12-3.67,4.64-3.57-4.64Z"/></svg>