<svg id="Layer_1" data-name="Layer 1" xmlns="http://www.w3.org/2000/svg" viewBox="0 0 122.88 79.63"><title>bad-quality-thumbs-down</title><path d="M29.51,1.36A39.9,39.9,0,0,1,72,16.3h-6.4a35.12,35.12,0,0,0-8.31-6.67A34.86,34.86,0,0,0,9.7,22.26l-.07.13A34.88,34.88,0,0,0,22.26,69.94l.13.07a34.91,34.91,0,0,0,43.4-6.93h6.32a39.79,39.79,0,0,1-52.2,11.21l-.14-.09A39.77,39.77,0,0,1,5.35,19.91l.09-.14A39.65,39.65,0,0,1,29.51,1.36ZM91.4,76.3a3.55,3.55,0,0,0,1.81,1.9,4.29,4.29,0,0,0,2.91.17A8.16,8.16,0,0,0,98.9,77,13.75,13.75,0,0,0,104,67.07a29.36,29.36,0,0,0-.07-4.37c-.08-1-.21-2.1-.39-3.22h10.58a11.36,11.36,0,0,0,4.76-1.21,7.84,7.84,0,0,0,2.94-2.58,6.56,6.56,0,0,0,1.06-3.94,9.25,9.25,0,0,0-1-3.62,11.36,11.36,0,0,0,.28-4.39,5.16,5.16,0,0,0-1.45-3,13.25,13.25,0,0,0-.74-4.94,10.5,10.5,0,0,0-2.35-3.68,15.33,15.33,0,0,0-.47-2.63,9,9,0,0,0-1.32-2.82h0c-1.79-2.54-3.23-2.48-5.5-2.38l-1.18,0H88.59a9.91,9.91,0,0,0-4.64.94,11,11,0,0,0-3.64,3.17l-.31.88v24l1,.28c2.65.72,4.74,3,6.37,5.71A40.17,40.17,0,0,1,91.06,68v6.25a3.92,3.92,0,0,0,.34,2ZM54.09,55.84h20.7a2.13,2.13,0,0,0,2.11-2.12V25.66a2.12,2.12,0,0,0-2.11-2.11H49.59a2.12,2.12,0,0,0-2.11,2.11c2.3,9.35,2.2,18.71,4.5,28.06a2.13,2.13,0,0,0,2.11,2.12Zm40.3,19.81a1.14,1.14,0,0,1-.53-.82v-7l-.06-.4a43.6,43.6,0,0,0-4-9.56c-1.76-2.94-4-5.47-7-6.63V29.8a7.62,7.62,0,0,1,2.39-2,7.41,7.41,0,0,1,3.39-.63h20.6c.37,0,.84,0,1.29,0,1.35-.05,2.2-.09,3.11,1.2h0a6.3,6.3,0,0,1,.9,2,12.75,12.75,0,0,1,.41,2.6l.44.92a8,8,0,0,1,2,3,11.08,11.08,0,0,1,.54,4.54l0,.83.71.44a2.15,2.15,0,0,1,.86,1.57,9.2,9.2,0,0,1-.36,3.73l.11,1a7.21,7.21,0,0,1,.89,2.93,3.87,3.87,0,0,1-.62,2.3,5.09,5.09,0,0,1-1.88,1.63,8.36,8.36,0,0,1-3.52.89H100.17l.31,1.67c.3,1.61.52,3.14.65,4.6a26.44,26.44,0,0,1,.06,3.95,10.85,10.85,0,0,1-4,7.83,5.19,5.19,0,0,1-1.78.93,1.5,1.5,0,0,1-1,0ZM18.94,18.93l4.28,1.46,3.62-2.71-.06,4.52,3.7,2.61-4.32,1.34-1.34,4.32-2.61-3.7-4.52.06,2.71-3.62-1.46-4.28ZM10.58,39.81l4.06-2,.64-4.48,3.15,3.24,4.46-.76-2.11,4,2.11,4L18.43,43l-3.15,3.24-.64-4.48-4.06-2Zm8.36,20.87,1.45-4.28-2.7-3.62,4.52.06,2.6-3.69,1.34,4.32,4.32,1.33-3.69,2.61.06,4.52-3.62-2.71-4.28,1.46ZM39.81,69l-2-4.05-4.47-.65,3.24-3.15-.77-4.46,4,2.11,4-2.11L43,61.19l3.24,3.15L41.8,65l-2,4.05Zm0-58.46,2,4.05,4.47.65-3.24,3.15.77,4.46-4-2.11-4,2.11.77-4.46-3.24-3.15,4.47-.65,2-4.05Z"/></svg>