<svg id="Layer_1" data-name="Layer 1" xmlns="http://www.w3.org/2000/svg" viewBox="0 0 96.93 122.88"><defs><style>.cls-1{fill-rule:evenodd;}</style></defs><title>business-rules</title><path class="cls-1" d="M26.88,66.35a1.73,1.73,0,0,1,2.47,0,1.78,1.78,0,0,1,0,2.5l-3,3,3,3a1.75,1.75,0,0,1-2.48,2.48l-3-3-3,3a1.74,1.74,0,0,1-2.46,0,1.78,1.78,0,0,1,0-2.5l3-3-3-3a1.75,1.75,0,0,1,0-2.48,1.72,1.72,0,0,1,2.45,0l3,3,3-3ZM30.32,5.2H40.81V1.65A1.65,1.65,0,0,1,42.45,0h12a1.66,1.66,0,0,1,1.65,1.65V5.2H66.61a2.34,2.34,0,0,1,2.33,2.32v4.05a52.41,52.41,0,0,1-8.3,4.7,44.44,44.44,0,0,1-8.72,2.91V16.87a1.78,1.78,0,0,0-1.79-1.78H46.79A1.78,1.78,0,0,0,45,16.87v2.26a45.31,45.31,0,0,1-8.51-2.86A52.93,52.93,0,0,1,28,11.42V7.52A2.33,2.33,0,0,1,30.32,5.2ZM50,17H47a.17.17,0,0,0-.17.18v6.38a.17.17,0,0,0,.17.17h3a.19.19,0,0,0,.13-.05.17.17,0,0,0,0-.12V17.21A.18.18,0,0,0,50,17ZM53.22,2.25H43.71a.2.2,0,0,0-.2.2V5.13h9.91V2.45a.21.21,0,0,0-.21-.2ZM68.94,15.17V29.39a2.33,2.33,0,0,1-2.33,2.32H30.32A2.33,2.33,0,0,1,28,29.39V15a54.17,54.17,0,0,0,6.93,3.75,50,50,0,0,0,10,3.26l.07,0v1.86a1.83,1.83,0,0,0,.52,1.27,1.78,1.78,0,0,0,1.26.52h3.34a1.79,1.79,0,0,0,1.27-.52,1.83,1.83,0,0,0,.52-1.27V22.08l.28,0a49.32,49.32,0,0,0,10-3.26,54.5,54.5,0,0,0,6.72-3.61ZM20.67,22.32h-15a.61.61,0,0,0-.58.6v94.27a.6.6,0,0,0,.58.59H91.29a.6.6,0,0,0,.58-.59V22.92a.61.61,0,0,0-.58-.59h-15V17.25h15a5.68,5.68,0,0,1,5.68,5.68V117.2a5.69,5.69,0,0,1-5.68,5.68H5.68A5.69,5.69,0,0,1,0,117.2V22.92a5.68,5.68,0,0,1,5.68-5.68h15v5.08Zm56.52,77a2.57,2.57,0,1,0,0-5.13H43a2.57,2.57,0,1,0,0,5.13H77.19Zm0-49.32a2.57,2.57,0,1,0,0-5.14H43A2.57,2.57,0,0,0,43,50Zm0,24.32a2.57,2.57,0,1,0,0-5.13H43a2.57,2.57,0,1,0,0,5.13Zm-58.6,22.3a2.28,2.28,0,1,1,3.79-2.53L23.62,96l4.92-6a2.28,2.28,0,0,1,3.52,2.89l-6.81,8.29a3,3,0,0,1-.55.52,2.29,2.29,0,0,1-3.16-.63l-2.95-4.38Zm.62-49.93a2.3,2.3,0,0,1,3.17.63l1.24,1.84,4.92-6a2.28,2.28,0,1,1,3.52,2.89l-6.81,8.28a2.48,2.48,0,0,1-.55.52,2.27,2.27,0,0,1-3.16-.63l-2.95-4.37h0a2.29,2.29,0,0,1,.62-3.17Z"/></svg>