<svg xmlns="http://www.w3.org/2000/svg" shape-rendering="geometricPrecision" text-rendering="geometricPrecision" image-rendering="optimizeQuality" fill-rule="evenodd" clip-rule="evenodd" viewBox="0 0 475 511.95"><path fill-rule="nonzero" d="M112.09 29.97 88.85 84.39a8.82 8.82 0 0 1-7.86 5.37l-58.42 5.25 44.58 38.93a8.82 8.82 0 0 1 2.79 8.61l-13.18 57.69 50.8-30.37a8.855 8.855 0 0 1 9.22.1l24.28 14.52-4.13 18.08-24.84-14.85-53.02 31.69c-1.51.94-3.2 1.59-4.96 1.91-1.85.32-3.76.29-5.64-.13-3.84-.87-6.96-3.22-8.89-6.28-1.94-3.09-2.71-6.93-1.83-10.74l13.81-60.43-46.17-40.31c-.48-.36-.92-.77-1.32-1.22-.8-.81-1.51-1.73-2.09-2.72l-.44-.76C.81 97.29.31 95.7.11 94.01l-.08-.83c-.24-3.75 1.03-7.29 3.31-10.01 2.26-2.71 5.54-4.57 9.27-5l62.06-5.54L99 15.66c.73-1.7 1.74-3.25 3.02-4.52 1.07-1.05 2.34-1.97 3.78-2.68l.72-.34c3.61-1.54 7.51-1.48 10.9-.11 3.35 1.36 6.21 4.01 7.74 7.61l20.06 46.98-18.48 1.65-14.65-34.28zm103.82 340.37c0 4.65-3.78 8.43-8.43 8.43s-8.43-3.78-8.43-8.43v-15.58c-.45-.24-.88-.52-1.29-.85l-16.23-13.16-21.88-17.95c-4.07-3.36-8.68-5.68-13-6.54-2.77-.55-5.33-.49-7.33.33-1.62.66-3.02 1.97-3.96 4.06-1.23 2.71-1.8 6.6-1.46 11.82.3 4.64 1.92 9.74 4.06 14.6 3.17 7.2 7.49 13.8 10.67 18.05l64.53 97.63a8.297 8.297 0 0 1 1.33 3.66c1.28 10.54 3.52 18.44 6.82 23.39 2.4 3.59 5.51 5.41 9.38 5.31 32.71 0 68.2-1.35 100.56 0 6.21-.1 11.9-1.93 17.04-5.47 5.74-3.96 10.99-10.11 15.73-18.4l1.21-2.07c12.44-21.44 24.51-42.25 25.78-66.96l-.64-28.65-.09-1.26.09-6.75c.23-20.97.59-53.07-16.85-56.21h-11.3c.34 8.96-.18 18.22-.65 26.63-.28 4.96-.54 9.57-.54 13.85 0 4.65-3.78 8.43-8.44 8.43-4.65 0-8.43-3.78-8.43-8.43 0-3.97.3-9.18.62-14.78 1.18-20.89 2.75-48.83-11.84-51.6h-11.06c-.73 0-1.45-.09-2.13-.27.69 10.06.09 20.72-.45 30.26-.28 4.97-.54 9.58-.54 13.86 0 4.65-3.78 8.43-8.43 8.43-4.66 0-8.44-3.78-8.44-8.43 0-3.97.3-9.18.62-14.78 1.18-20.89 2.75-48.83-11.84-51.59h-11.06c-.76 0-1.5-.1-2.2-.29v43.5c0 4.66-3.78 8.43-8.43 8.43-4.66 0-8.43-3.77-8.43-8.43V216.6c0-14.66-5.99-23.92-13.63-27.78-2.8-1.41-5.82-2.13-8.8-2.13-2.96 0-5.96.7-8.75 2.11-7.55 3.84-13.46 13.14-13.46 28.15v153.39zm-16.86-37.04V229.48l-35.3 21.1a6.87 6.87 0 0 1-9.41-2.37 6.836 6.836 0 0 1-.8-5.06h-.01l19.15-83.76-64.73-56.52c-2.85-2.49-3.14-6.82-.64-9.68a6.844 6.844 0 0 1 4.8-2.34l85.32-7.65 33.75-79.01c1.49-3.5 5.52-5.13 9.01-3.64 1.72.73 2.99 2.08 3.65 3.68l33.73 78.97 85.55 7.68c3.77.32 6.57 3.65 6.24 7.42a6.814 6.814 0 0 1-2.32 4.57l-64.71 56.52 19.14 83.76a6.874 6.874 0 0 1-10.46 7.29l-33.6-20.09v13.99c.7-.19 1.44-.28 2.2-.28h11.62c.67 0 1.31.07 1.93.22 13.96 2.23 20.92 11.53 24.21 23.61 1.3-.83 2.86-1.31 4.51-1.31h11.62c.67 0 1.31.08 1.93.22 14.86 2.38 21.78 12.76 24.8 25.98.71-.19 1.46-.3 2.23-.3h11.63c.66 0 1.31.08 1.93.23 31.9 5.1 31.44 46.2 31.14 73-.04 12.4.52 24.74.65 37.13-1.42 28.91-14.53 51.5-28.03 74.77l-1.14 2c-5.98 10.44-12.91 18.42-20.81 23.86-7.99 5.49-16.83 8.32-26.5 8.43l-100.44.04c-10.03.17-17.81-4.22-23.53-12.79-4.61-6.91-7.67-16.58-9.32-28.76l-62.94-95.25c-3.71-4.97-8.77-12.71-12.55-21.29-2.84-6.45-5-13.45-5.45-20.32-.53-8.13.61-14.69 2.92-19.8 2.87-6.35 7.45-10.5 12.98-12.75 5.16-2.1 11-2.41 16.88-1.24 7.04 1.4 14.31 4.98 20.5 10.09l28.67 23.47zM342 396.57c0-3.8 3.09-6.89 6.89-6.89 3.79 0 6.88 3.09 6.88 6.89v31.48a6.886 6.886 0 0 1-13.77 0v-31.48zm-40.68-13.92c0-3.79 3.08-6.88 6.88-6.88s6.88 3.09 6.88 6.88v45.39c0 3.8-3.08 6.89-6.88 6.89s-6.88-3.09-6.88-6.89v-45.39zm74.67-366.99 24.34 56.97 62.06 5.54c3.73.43 7 2.29 9.27 5 2.28 2.71 3.55 6.26 3.31 10.01l-.08.83c-.2 1.69-.7 3.28-1.43 4.72l-.45.77c-.57.98-1.27 1.89-2.06 2.69-.4.45-.85.87-1.34 1.24l-46.17 40.31 13.81 60.43c.88 3.81.1 7.66-1.83 10.74a14.198 14.198 0 0 1-8.89 6.28c-1.88.42-3.8.45-5.64.13a14.41 14.41 0 0 1-4.96-1.91l-53.02-31.69-24.75 14.8-4.19-18.05 24.25-14.5a8.855 8.855 0 0 1 9.22-.1l50.8 30.37-13.19-57.69c-.69-3.07.28-6.41 2.8-8.61l44.58-38.93-58.42-5.25a8.82 8.82 0 0 1-7.86-5.37l-23.24-54.42-14.65 34.3-18.49-1.66 20.07-46.99c1.53-3.6 4.38-6.24 7.75-7.6 3.38-1.38 7.28-1.44 10.89.1l.7.33c1.44.71 2.73 1.64 3.79 2.7 1.29 1.26 2.29 2.81 3.02 4.51z"/></svg>