<?xml version="1.0" encoding="utf-8"?><svg version="1.1" id="Layer_1" xmlns="http://www.w3.org/2000/svg" xmlns:xlink="http://www.w3.org/1999/xlink" x="0px" y="0px" viewBox="0 0 122.88 100.32" style="enable-background:new 0 0 122.88 100.32" xml:space="preserve"><style type="text/css">.st0{fill-rule:evenodd;clip-rule:evenodd;}</style><g><path class="st0" d="M27.63,16.77c-0.51,0.02-0.89,0.12-1.15,0.3c-0.15,0.1-0.26,0.23-0.33,0.38c-0.08,0.17-0.11,0.37-0.11,0.61 c0.02,0.69,0.38,1.6,1.09,2.64l0.01,0.01l2.28,3.63c0.91,1.45,1.87,2.94,3.06,4.03c1.14,1.05,2.54,1.76,4.37,1.76 c1.99,0,3.45-0.73,4.63-1.84c1.23-1.15,2.2-2.73,3.15-4.3l2.57-4.23c0.48-1.09,0.65-1.82,0.54-2.25c-0.06-0.26-0.35-0.38-0.83-0.4 c-0.1,0-0.21-0.01-0.31,0c-0.11,0-0.23,0.01-0.36,0.02c-0.07,0.01-0.13,0-0.2-0.01c-0.23,0.01-0.46,0-0.7-0.04l0.88-3.89 c-6.53,1.03-11.41-3.82-18.31-0.97l0.5,4.59C28.14,16.82,27.88,16.81,27.63,16.77L27.63,16.77L27.63,16.77L27.63,16.77L27.63,16.77 z M74.27,12.03h40.28c1.61,0,2.93,1.32,2.93,2.93V38.8c0,1.61-1.32,2.93-2.93,2.93H98.99l2.29,5.76h17.17c1.22,0,2.33,0.5,3.13,1.3 c0.8,0.8,1.3,1.91,1.3,3.13v10.11c0,1.21-0.5,2.32-1.3,3.12l-0.01,0.01c-0.8,0.8-1.91,1.3-3.12,1.3h-2.78v30.51 c0,0.92-0.38,1.76-0.98,2.37c-0.61,0.61-1.45,0.98-2.37,0.98H11.6c-0.93,0-1.77-0.38-2.38-0.99c-0.06-0.06-0.11-0.12-0.16-0.18 c-0.51-0.59-0.83-1.36-0.83-2.2v-30.5h-3.8c-1.22,0-2.33-0.5-3.13-1.3C1.25,65.1,1.2,65.05,1.16,65C0.44,64.21,0,63.17,0,62.02 V51.91c0-1.22,0.5-2.33,1.3-3.13c0.05-0.05,0.11-0.1,0.16-0.14c0.79-0.72,1.83-1.15,2.97-1.15c5.26,0,2.83,0,8.09,0l0,0 c-0.06-0.21-0.11-0.43-0.13-0.68c0.08-6.38-0.89-7.57,5.82-11.32c2.46-1.37,8.8-1.84,11.57-3.65c0.42-0.8,0.89-2.22,1.17-3.07 l0.03-0.08c-1.02-1.09-1.85-2.38-2.65-3.65l-2.28-3.62c-0.83-1.24-1.27-2.38-1.29-3.31c-0.01-0.44,0.06-0.84,0.22-1.19 c0.17-0.37,0.43-0.67,0.78-0.91c0.16-0.11,0.35-0.2,0.55-0.28c-0.15-1.97-0.2-4.44-0.11-6.52c0.05-0.49,0.14-0.98,0.28-1.48 c0.83-2.98,3.4-5.13,6.33-6.14C34.24,1.1,33.69-0.07,35.13,0c3.4,0.19,8.65,2.38,10.67,4.7c2.83,3.26,2.1,7.27,2,11.25v0 c0.63,0.19,1.04,0.59,1.2,1.24c0.18,0.72-0.02,1.73-0.62,3.11l0,0c-0.01,0.03-0.02,0.05-0.04,0.07l-2.6,4.28 c-1,1.65-2.02,3.3-3.38,4.57L42.3,29.3c0.13,0.19,0.27,0.39,0.42,0.61c0.45,0.66,0.96,1.41,1.44,2c2.82,1.76,9.04,2.23,11.46,3.58 c6.18,3.45,4.65,5.29,5.1,11.32c-0.02,0.24-0.07,0.47-0.13,0.68h27l2.69-5.76H74.27c-1.61,0-2.93-1.32-2.93-2.93V14.96 C71.34,13.34,72.66,12.03,74.27,12.03L74.27,12.03z M9.59,51.65c-0.11,0.02-0.22,0.03-0.33,0.03c-0.11,0-0.22-0.01-0.33-0.03H4.43 c-0.05,0-0.11,0.01-0.14,0.04l-0.04,0.04c-0.05,0.05-0.08,0.11-0.08,0.18v10.11c0,0.06,0.02,0.11,0.04,0.15l0.03,0.03 c0.05,0.05,0.11,0.08,0.18,0.08h5.6c0.09-0.01,0.19-0.02,0.28-0.02c0.1,0,0.19,0.01,0.28,0.02h102.71 c0.09-0.01,0.19-0.02,0.28-0.02c0.1,0,0.19,0.01,0.28,0.02h4.58c0.07,0,0.14-0.03,0.18-0.07c0.05-0.05,0.07-0.11,0.07-0.19V51.91 c0-0.07-0.03-0.13-0.08-0.18c-0.05-0.05-0.11-0.08-0.18-0.08H9.59L9.59,51.65L9.59,51.65z M12.4,66.45v29.7l99.11,0v-29.7H12.4 L12.4,66.45z M32.22,35.89c-1.15-1.31-1.25-2.68,0-4.13c1.44,0.36,2.76,0.99,3.98,1.83c0.26-0.11,0.57-0.16,0.87-0.14 c1.26-0.9,2.88-1.26,4.29-1.93c1.68,1.64,1.5,3.15-0.15,4.55c-0.92-0.21-1.8-0.54-2.65-0.97c-0.02,0.22-0.08,0.45-0.18,0.71 l1.84,8.72c1.4-2.94,2.85-7.62,3.22-11.42c-0.61-0.69-1.26-1.64-1.82-2.46c-0.13-0.19-0.25-0.36-0.36-0.53 c-1.19,0.8-2.61,1.29-4.39,1.29c-1.98,0-3.52-0.68-4.8-1.72c-0.36,1.07-0.89,2.55-1.39,3.26c-0.04,0.05-0.08,0.1-0.13,0.14 c0.67,4.13,2.11,8.61,3.43,11.45l1.84-8.72c-0.27-0.45-0.37-0.84-0.36-1.17C34.44,35.25,33.35,35.64,32.22,35.89L32.22,35.89 L32.22,35.89L32.22,35.89z"/></g></svg>