<svg xmlns="http://www.w3.org/2000/svg" shape-rendering="geometricPrecision" text-rendering="geometricPrecision" image-rendering="optimizeQuality" fill-rule="evenodd" clip-rule="evenodd" viewBox="0 0 419 511.68"><path d="M93 39.4h46.12C141.84 17.18 159.77 0 181.52 0c21.62 0 39.45 16.95 42.34 38.94l46.76.46c2.6 0 4.7 2.1 4.7 4.71v51.85c0 2.6-2.1 4.7-4.7 4.7H93.05c-2.56 0-4.71-2.1-4.71-4.7V44.11A4.644 4.644 0 0 1 93 39.4zm221.98 264.23c57.47 0 104.02 46.58 104.02 104.02 0 57.47-46.58 104.03-104.02 104.03-57.48 0-104.02-46.58-104.02-104.03 0-57.48 46.58-104.02 104.02-104.02zm12.92 123.21h-25.94c-1.77-21.43-23.23-73.38 13.02-73.38 36.32 0 14.69 52.02 12.92 73.38zm-25.94 15.01h25.94v19.98h-25.94v-19.98zM41.73 59.28h23.93v24.38H41.73c-4.77 0-9.12 1.96-12.25 5.09-3.14 3.14-5.1 7.48-5.1 12.24v315.53c0 4.78 1.95 9.13 5.08 12.27 3.15 3.12 7.5 5.09 12.27 5.09h142.61c1.69 8.44 4.18 16.6 7.37 24.38H41.73c-11.41 0-21.86-4.71-29.42-12.27C4.71 438.37 0 427.96 0 416.52V100.99c0-11.48 4.7-21.91 12.25-29.46 7.55-7.55 17.99-12.25 29.48-12.25zm297.55 217.36V100.99c0-4.76-1.97-9.11-5.09-12.26-3.15-3.12-7.49-5.07-12.27-5.07h-23.91V59.28h23.91c11.44 0 21.85 4.71 29.42 12.25 7.6 7.61 12.31 18.05 12.31 29.46V283.6c-7.78-3.06-15.94-5.41-24.37-6.96zm-206.75-8.06c-7.13 0-12.92-5.8-12.92-12.93s5.79-12.92 12.92-12.92h142.82c7.13 0 12.93 5.79 12.93 12.92s-5.8 12.93-12.93 12.93H132.53zM89.5 241.21c7.97 0 14.44 6.47 14.44 14.45 0 7.98-6.47 14.44-14.44 14.44s-14.44-6.46-14.44-14.44c0-7.98 6.47-14.45 14.44-14.45zm0 78.63c7.97 0 14.44 6.46 14.44 14.44 0 7.97-6.47 14.44-14.44 14.44s-14.44-6.47-14.44-14.44c0-7.98 6.47-14.44 14.44-14.44zm43.04 27.36c-7.13 0-12.93-5.8-12.93-12.93s5.8-12.92 12.93-12.92h80.96a133.304 133.304 0 0 0-17.26 25.85h-63.7zM89.5 162.61c7.97 0 14.44 6.46 14.44 14.44 0 7.98-6.47 14.43-14.44 14.43s-14.44-6.45-14.44-14.43c0-7.98 6.47-14.44 14.44-14.44zm43.03 27.35c-7.13 0-12.92-5.79-12.92-12.92s5.79-12.93 12.92-12.93h142.82c7.13 0 12.93 5.8 12.93 12.93s-5.8 12.92-12.93 12.92H132.53zm48.5-169.8c12.3 0 22.26 9.97 22.26 22.27 0 12.29-9.96 22.26-22.26 22.26-12.29 0-22.26-9.97-22.26-22.26 0-12.3 9.97-22.27 22.26-22.27z"/></svg>