<?xml version="1.0" encoding="utf-8"?><svg version="1.1" id="Layer_1" xmlns="http://www.w3.org/2000/svg" xmlns:xlink="http://www.w3.org/1999/xlink" x="0px" y="0px" viewBox="0 0 111.82 122.88" style="enable-background:new 0 0 111.82 122.88" xml:space="preserve"><style type="text/css">.st0{fill-rule:evenodd;clip-rule:evenodd;}</style><g><path class="st0" d="M55.72,0c20.87,13.2,39.67,19.47,55.85,17.99c2.84,57.11-18.25,90.84-55.63,104.89 C19.84,109.72-1.5,77.42,0.08,17.11C19.07,18.1,37.69,14.01,55.72,0L55.72,0z M55.91,79.01l3.13,7.64l8.23,0.61l-6.3,5.34 l1.96,8.02l-7.02-4.34l-7.02,4.34l1.96-8.02l-6.3-5.34l8.23-0.61L55.91,79.01L55.91,79.01z M29.4,44.83v-3.59h8.25v7.34 c-1.58,1.08-2.97,1.81-4.18,2.2c-1.21,0.39-2.65,0.58-4.32,0.58c-2.05,0-3.72-0.35-5.01-1.05c-1.29-0.7-2.29-1.74-3-3.12 c-0.71-1.38-1.07-2.97-1.07-4.76c0-1.89,0.39-3.52,1.17-4.92c0.78-1.39,1.91-2.45,3.41-3.17c1.17-0.56,2.75-0.84,4.72-0.84 c1.91,0,3.33,0.17,4.28,0.52c0.95,0.35,1.73,0.88,2.36,1.61c0.62,0.73,1.09,1.65,1.41,2.76l-5.14,0.92 c-0.21-0.66-0.57-1.16-1.08-1.5c-0.51-0.35-1.15-0.52-1.94-0.52c-1.17,0-2.1,0.41-2.79,1.22c-0.7,0.81-1.04,2.1-1.04,3.86 c0,1.87,0.35,3.2,1.05,4c0.7,0.8,1.68,1.2,2.93,1.2c0.6,0,1.16-0.08,1.7-0.26c0.54-0.17,1.16-0.47,1.86-0.88v-1.62H29.4L29.4,44.83 z M40.12,33.81h7.93c1.56,0,2.83,0.21,3.79,0.63c0.96,0.43,1.76,1.03,2.39,1.82c0.63,0.8,1.08,1.72,1.36,2.77 c0.29,1.05,0.43,2.17,0.43,3.34c0,1.85-0.21,3.28-0.63,4.29c-0.42,1.02-1,1.87-1.75,2.56c-0.75,0.69-1.55,1.15-2.4,1.37 c-1.17,0.31-2.23,0.47-3.18,0.47h-7.93V33.81L40.12,33.81z M45.45,37.72v9.43h1.31c1.12,0,1.91-0.12,2.39-0.37 c0.47-0.25,0.84-0.68,1.11-1.29c0.27-0.62,0.4-1.62,0.4-3c0-1.83-0.3-3.08-0.9-3.75c-0.6-0.68-1.59-1.01-2.98-1.01H45.45 L45.45,37.72z M58.02,33.81h8.88c1.93,0,3.38,0.46,4.35,1.38c0.96,0.92,1.44,2.23,1.44,3.93c0,1.74-0.53,3.11-1.58,4.09 c-1.05,0.98-2.65,1.48-4.81,1.48h-2.93v6.39h-5.35V33.81L58.02,33.81z M63.38,41.19h1.31c1.04,0,1.76-0.18,2.18-0.54 c0.42-0.36,0.63-0.82,0.63-1.37c0-0.54-0.18-1-0.55-1.38c-0.36-0.38-1.05-0.57-2.05-0.57h-1.53V41.19L63.38,41.19z M74.78,51.08 V33.81h8.89c1.65,0,2.91,0.14,3.78,0.43c0.87,0.28,1.58,0.81,2.11,1.57c0.53,0.77,0.8,1.7,0.8,2.81c0,0.96-0.2,1.78-0.62,2.48 c-0.41,0.7-0.97,1.26-1.69,1.7c-0.45,0.27-1.08,0.5-1.87,0.68c0.64,0.21,1.1,0.42,1.39,0.63c0.19,0.14,0.48,0.45,0.85,0.91 c0.37,0.46,0.62,0.82,0.74,1.07l2.59,4.99h-6.03l-2.85-5.27c-0.36-0.68-0.68-1.13-0.96-1.33c-0.39-0.27-0.82-0.4-1.31-0.4h-0.47 v6.99H74.78L74.78,51.08z M80.13,40.83h2.26c0.24,0,0.72-0.08,1.42-0.24c0.35-0.07,0.64-0.25,0.86-0.54c0.23-0.29,0.34-0.63,0.34-1 c0-0.56-0.18-0.99-0.53-1.29c-0.35-0.3-1.02-0.45-1.99-0.45h-2.35V40.83L80.13,40.83z"/></g></svg>