<svg id="Layer_1" data-name="Layer 1" xmlns="http://www.w3.org/2000/svg" viewBox="0 0 121.7 122.88"><title>market-research</title><path d="M53.62,0A53.63,53.63,0,0,1,98.5,83l23.2,25.29-16,14.63L83.32,98.26A53.62,53.62,0,1,1,53.62,0ZM72.08,32.68l-1.88-2.4a1.28,1.28,0,0,1-.27-1.17c.32-1,1.47-.88,2.26-.83,2.26.17,7.6.21,8.76.26a1.25,1.25,0,0,1,1.21,1.54c-.24,1.18-1.32,6.84-1.71,9-.14.75-.36,1.71-1.3,1.78a1.25,1.25,0,0,1-1.08-.53l-1.88-2.4-.76-1-9.24,7v.16a5.61,5.61,0,1,1-11.22,0c0-.12,0-.25,0-.37l-6.51-4.7a5.62,5.62,0,0,1-6.77-.28l-6.31,4.49A5.61,5.61,0,1,1,30,39.11a5.56,5.56,0,0,1,2.27.48l7.42-5.29a5.61,5.61,0,0,1,11.22.16l0,.37,6.51,4.7a5.6,5.6,0,0,1,6.53.1l8.52-6.5-.36-.45ZM72,47.14h7.74a.82.82,0,0,1,.81.81V78a.82.82,0,0,1-.81.81H72a.81.81,0,0,1-.81-.81V48a.82.82,0,0,1,.81-.81Zm-15.3,10.3h7.74a.81.81,0,0,1,.81.81V78a.81.81,0,0,1-.81.81H56.72a.81.81,0,0,1-.81-.81V58.25a.81.81,0,0,1,.81-.81Zm-15.3-10.3h7.73A.81.81,0,0,1,50,48V78a.81.81,0,0,1-.81.81H41.42a.81.81,0,0,1-.81-.81V48a.82.82,0,0,1,.81-.81Zm-15.3,12h7.73a.81.81,0,0,1,.81.81V78a.81.81,0,0,1-.81.81H26.12a.81.81,0,0,1-.81-.81V59.91a.81.81,0,0,1,.81-.81ZM87.3,19.93a47.64,47.64,0,1,0,14,33.69,47.48,47.48,0,0,0-14-33.69Z"/></svg>