<svg id="Layer_1" data-name="Layer 1" xmlns="http://www.w3.org/2000/svg" viewBox="0 0 122.88 95.78"><defs><style>.cls-1{fill-rule:evenodd;}</style></defs><title>satisfaction</title><path class="cls-1" d="M61.44,0l3.18,7.77L73,8.39l-6.4,5.43,2,8.15-7.13-4.42L54.31,22l2-8.15L49.89,8.39l8.37-.62L61.44,0Zm-6.5,46.36A25.13,25.13,0,1,1,37.17,77.14,25.13,25.13,0,0,1,54.94,46.36ZM27.28,59.83a2.68,2.68,0,0,1-5.09-1.71,41.42,41.42,0,0,1,78.48-.06,2.69,2.69,0,0,1-5.09,1.73,36.05,36.05,0,0,0-68.3,0ZM55,58.71c1.76,0,3.19,2.06,3.19,4.61S56.79,67.93,55,67.93s-3.18-2.07-3.18-4.61,1.42-4.61,3.18-4.61ZM47.88,74.47a16.63,16.63,0,0,0,3.62,3.45A17.48,17.48,0,0,0,61.71,81a16.55,16.55,0,0,0,9.87-3.33,14.43,14.43,0,0,0,3.07-3.21.09.09,0,0,1,.12,0l1,1a.09.09,0,0,1,0,.12A18.68,18.68,0,0,1,70,81.74a15.39,15.39,0,0,1-8.21,2.61,16,16,0,0,1-8.46-2.27A20.63,20.63,0,0,1,46.7,75.6a.09.09,0,0,1,0-.12l1-1a.1.1,0,0,1,.13,0Zm20-15.76c1.76,0,3.18,2.06,3.18,4.61s-1.42,4.61-3.18,4.61-3.19-2.07-3.19-4.61,1.43-4.61,3.19-4.61Zm55-23.43-5.14,6.63,3.65,7.57-7.9-2.84-6.07,5.81.26-8.39-7.39-4,8.06-2.34,1.49-8.27,4.72,6.93,8.32-1.12ZM96.78,9.17l-1.13,8.32,6.94,4.73-8.26,1.49L92,31.77l-4-7.4-8.4.26,5.81-6.06-2.84-7.91,7.56,3.65,6.64-5.14ZM0,35.28l8.32,1.13L13,29.47l1.5,8.26,8.06,2.35-7.4,4,.26,8.39L9.4,46.63,1.49,49.48l3.65-7.56L0,35.28ZM26.1,9.17l6.64,5.14,7.56-3.65-2.83,7.9,5.81,6.07-8.4-.26-4,7.4-2.35-8.06-8.27-1.49,6.94-4.73L26.1,9.17Z"/></svg>